<?xml version="1.0" standalone="no"?>
<!DOCTYPE svg PUBLIC "-//W3C//DTD SVG 20010904//EN"
 "http://www.w3.org/TR/2001/REC-SVG-20010904/DTD/svg10.dtd">
<svg version="1.0" xmlns="http://www.w3.org/2000/svg"
 width="512.000000pt" height="512.000000pt" viewBox="0 0 512.000000 512.000000"
 preserveAspectRatio="xMidYMid meet">

<g transform="translate(0.000000,512.000000) scale(0.100000,-0.100000)"
fill="#000000" stroke="none">
<path d="M1853 4929 c-36 -18 -59 -45 -143 -170 l-101 -149 951 0 951 0 -101
149 c-85 127 -107 153 -143 170 -43 21 -55 21 -708 21 -655 0 -665 0 -706 -21z"/>
<path d="M730 4427 c-44 -22 -50 -49 -50 -245 0 -190 8 -231 45 -246 9 -3 838
-6 1841 -6 1803 0 1824 0 1844 20 29 29 32 50 28 253 -3 179 -4 187 -26 209
l-23 23 -1817 2 c-1445 2 -1822 0 -1842 -10z"/>
<path d="M940 2028 c0 -1697 0 -1722 20 -1762 11 -23 36 -52 57 -66 l37 -25
1496 -3 1496 -2 44 23 c30 16 51 37 67 67 l23 43 0 1724 0 1723 -1620 0 -1620
0 0 -1722z m759 1456 c39 -11 67 -29 102 -64 85 -85 80 22 77 -1481 l-3 -1324
-22 -41 c-25 -47 -76 -99 -117 -121 -41 -22 -137 -28 -191 -13 -56 16 -127 77
-154 133 -21 43 -21 46 -21 1388 l0 1345 26 52 c29 59 86 109 147 128 57 17
93 17 156 -2z m937 1 c64 -19 118 -65 152 -129 l27 -51 0 -1335 c0 -1517 7
-1390 -85 -1473 -101 -91 -239 -91 -340 0 -92 83 -85 -44 -85 1473 l0 1335 27
51 c33 63 87 110 148 129 59 18 96 18 156 0z m940 0 c65 -19 116 -63 148 -127
l26 -52 0 -1343 c0 -1480 5 -1375 -64 -1451 -53 -58 -123 -86 -207 -80 -95 7
-165 54 -213 143 l-21 40 -3 1324 c-3 1504 -8 1396 77 1481 73 73 158 95 257
65z"/>
<path d="M1585 3318 c-47 -25 -45 34 -45 -1355 l0 -1314 25 -24 c33 -34 83
-34 116 1 l24 26 3 1299 c2 1422 5 1347 -54 1369 -32 12 -44 12 -69 -2z"/>
<path d="M2518 3314 c-17 -9 -31 -28 -38 -52 -8 -26 -10 -421 -8 -1325 l3
-1289 28 -24 c36 -31 78 -31 114 0 l28 24 3 1289 c2 905 0 1299 -8 1325 -7 25
-20 43 -40 53 -36 18 -47 18 -82 -1z"/>
<path d="M3460 3317 c-52 -26 -50 32 -47 -1364 l2 -1301 24 -26 c33 -35 83
-35 116 -1 l25 24 0 1310 c0 720 -3 1317 -6 1326 -7 17 -54 45 -76 45 -7 0
-24 -6 -38 -13z"/>
</g>
</svg>
