<?xml version="1.0" standalone="no"?>
<!DOCTYPE svg PUBLIC "-//W3C//DTD SVG 20010904//EN"
 "http://www.w3.org/TR/2001/REC-SVG-20010904/DTD/svg10.dtd">
<svg version="1.0" xmlns="http://www.w3.org/2000/svg"
 width="512.000000pt" height="512.000000pt" viewBox="0 0 512.000000 512.000000"
 preserveAspectRatio="xMidYMid meet">

<g transform="translate(0.000000,512.000000) scale(0.100000,-0.100000)"
fill="#000000" stroke="none">
<path d="M1895 4934 c-92 -48 -105 -85 -105 -311 l0 -183 770 0 770 0 0 183
c0 208 -9 243 -76 293 l-37 29 -646 3 c-572 2 -649 0 -676 -14z"/>
<path d="M1790 4140 l0 -130 770 0 770 0 0 130 0 130 -770 0 -770 0 0 -130z"/>
<path d="M1790 2565 l0 -1275 48 19 c26 10 102 40 170 66 l122 47 0 1209 0
1209 -170 0 -170 0 0 -1275z"/>
<path d="M2300 2625 l0 -1214 120 -91 c66 -50 126 -93 133 -96 7 -2 70 38 140
91 l127 95 0 1215 0 1215 -260 0 -260 0 0 -1215z"/>
<path d="M2990 2631 l0 -1208 123 -48 c67 -26 143 -56 170 -66 l47 -19 0 1275
0 1275 -170 0 -170 0 0 -1209z"/>
<path d="M2007 1192 c-136 -53 -196 -81 -192 -90 2 -7 87 -120 187 -252 153
-201 186 -239 203 -234 186 55 198 57 355 57 157 0 169 -2 355 -57 17 -5 50
33 203 234 100 132 185 245 188 253 4 12 -45 33 -331 142 l-61 23 -157 -118
c-87 -65 -167 -120 -178 -123 -34 -9 -61 6 -212 119 -78 59 -146 110 -152 115
-5 4 -99 -27 -208 -69z"/>
<path d="M2393 491 c-45 -9 -84 -19 -87 -22 -9 -9 205 -280 230 -291 17 -8 31
-8 48 0 34 15 239 285 223 293 -27 16 -184 39 -256 38 -42 0 -113 -8 -158 -18z"/>
</g>
</svg>
